HIERARCHY
ROOT Pelvis
{
	OFFSET 0.000000 0.000000 0.000000
	CHANNELS 6 Xposition Yposition Zposition Xrotation Yrotation Zrotation
	JOINT LeftUpLeg_virtual
	{
		OFFSET 0.000000 0.000000 0.000000
		CHANNELS 3 Xrotation Yrotation Zrotation
		JOINT LeftUpLeg
		{
			OFFSET 18.735201 -5.666702 -4.541200
			CHANNELS 3 Xrotation Yrotation Zrotation
			JOINT LeftLeg
			{
				OFFSET -0.021200 -31.938179 0.493100
				CHANNELS 3 Xrotation Yrotation Zrotation
				JOINT LeftFoot
				{
					OFFSET 0.021200 -31.938179 -4.336299
					CHANNELS 3 Xrotation Yrotation Zrotation
					JOINT LeftToeBase
					{
						OFFSET 0.943001 -26.722000 15.023500
						CHANNELS 3 Xrotation Yrotation Zrotation
						End Site
						{
							OFFSET 0 0 0
						}
					}
				}
			}
		}
	}
	JOINT RightUpLeg_virtual
	{
		OFFSET 0.000000 0.000000 0.000000
		CHANNELS 3 Xrotation Yrotation Zrotation
		JOINT RightUpLeg
		{
			OFFSET -18.735201 -5.666702 -4.541200
			CHANNELS 3 Xrotation Yrotation Zrotation
			JOINT RightLeg
			{
				OFFSET 0.018946 -31.938133 0.493100
				CHANNELS 3 Xrotation Yrotation Zrotation
				JOINT RightFoot
				{
					OFFSET -0.018946 -31.938126 -4.336299
					CHANNELS 3 Xrotation Yrotation Zrotation
					JOINT RightToeBase
					{
						OFFSET -0.943001 -26.722004 15.023500
						CHANNELS 3 Xrotation Yrotation Zrotation
						End Site
						{
							OFFSET 0 0 0
						}
					}
				}
			}
		}
	}
	JOINT Hips_virtual
	{
		OFFSET 0.000000 0.000000 0.000000
		CHANNELS 3 Xrotation Yrotation Zrotation
		JOINT Hips
		{
			OFFSET -0.000000 -0.000000 -0.000000
			CHANNELS 3 Xrotation Yrotation Zrotation
			JOINT Spine
			{
				OFFSET 0.000000 10.199997 -0.299500
				CHANNELS 3 Xrotation Yrotation Zrotation
				JOINT Spine1
				{
					OFFSET 0.000000 11.900002 -1.516600
					CHANNELS 3 Xrotation Yrotation Zrotation
					JOINT Spine2
					{
						OFFSET 0.000000 13.600006 -2.842500
						CHANNELS 3 Xrotation Yrotation Zrotation
						JOINT Neck_virtual
						{
							OFFSET 0.000000 0.000000 0.000000
							CHANNELS 3 Xrotation Yrotation Zrotation
							JOINT Neck
							{
								OFFSET 0.000000 9.624100 -2.890100
								CHANNELS 3 Xrotation Yrotation Zrotation
								JOINT Head
								{
									OFFSET 0.000000 14.068802 -1.351900
									CHANNELS 3 Xrotation Yrotation Zrotation
									End Site
									{
										OFFSET 0 0 0
									}
								}
							}
						}
						JOINT LeftShoulder_virtual
						{
							OFFSET 0.000000 0.000000 0.000000
							CHANNELS 3 Xrotation Yrotation Zrotation
							JOINT LeftShoulder
							{
								OFFSET 15.263000 10.923401 -0.547700
								CHANNELS 3 Xrotation Yrotation Zrotation
								JOINT LeftArm
								{
									OFFSET 25.438599 -2.830597 -13.032500
									CHANNELS 3 Xrotation Yrotation Zrotation
									JOINT LeftForeArm
									{
										OFFSET 29.960503 0.000000 0.000000
										CHANNELS 3 Xrotation Yrotation Zrotation
										JOINT LeftHand
										{
											OFFSET 27.849251 0.000000 0.000000
											CHANNELS 3 Xrotation Yrotation Zrotation
											End Site
											{
												OFFSET 0 0 0
											}
										}
									}
								}
							}
						}
						JOINT RightShoulder_virtual
						{
							OFFSET 0.000000 0.000000 0.000000
							CHANNELS 3 Xrotation Yrotation Zrotation
							JOINT RightShoulder
							{
								OFFSET -15.263000 10.923401 -0.547700
								CHANNELS 3 Xrotation Yrotation Zrotation
								JOINT RightArm
								{
									OFFSET -25.438599 -2.830597 -13.032500
									CHANNELS 3 Xrotation Yrotation Zrotation
									JOINT RightForeArm
									{
										OFFSET -29.960503 0.000000 0.000000
										CHANNELS 3 Xrotation Yrotation Zrotation
										JOINT RightHand
										{
											OFFSET -27.849251 0.000000 0.000000
											CHANNELS 3 Xrotation Yrotation Zrotation
											End Site
											{
												OFFSET 0 0 0
											}
										}
									}
								}
							}
						}
					}
				}
			}
		}
	}
}
MOTION
Frames: 6
Frame Time: 0.03333333
4.011731 39.840263 -5.937378 0.000000 0.000000 0.000000 11.629412 -15.918398 5.380114 -27.605791 6.485843 20.465222 96.127618 -3.866033 -3.809517 31.812071 -4.352384 -14.211211 0.000000 0.000000 0.000000 7.129135 9.281659 -2.313137 -21.326077 -2.115682 -16.504134 92.912368 3.134540 0.609688 28.668380 3.887644 16.799260 0.000000 0.000000 0.000000 0.923677 -0.043162 0.991094 5.418111 9.448675 1.625320 4.938514 0.672174 -0.144994 1.130115 0.516644 -0.156270 0.000000 0.000000 0.000000 2.055270 0.345713 0.044753 -0.871471 -0.001821 -0.070714 0.000000 0.000000 0.000000 1.441038 0.796286 -1.880609 -0.332660 -3.867802 -14.017524 4.895197 -7.938041 -51.613725 5.364231 -37.451587 -2.476781 0.000000 0.000000 0.000000 1.935616 -0.010479 2.161956 -0.735604 7.081565 14.592356 5.755254 0.995835 49.071532 4.672893 32.676943 2.011165 0.000000 0.000000 0.000000 
2.241151 39.406017 -6.682175 0.000000 0.000000 0.000000 10.811111 -17.933830 4.978308 -28.157786 5.855553 19.651854 99.465115 -3.675504 -4.516536 33.869624 -3.856968 -14.982643 0.000000 0.000000 0.000000 6.383098 10.084554 -2.949271 -21.948671 -1.578530 -16.933060 95.852573 3.805458 0.809558 30.385555 4.736610 17.853146 0.000000 0.000000 0.000000 -0.219895 -1.012633 0.246896 6.948519 10.269999 0.347215 3.549976 0.588328 -0.049691 0.345377 0.721426 0.292605 0.000000 0.000000 0.000000 2.289798 0.461051 -0.065153 -0.737414 0.112655 -0.049299 0.000000 0.000000 0.000000 0.651748 0.779533 -1.875747 0.033670 -3.343435 -14.705476 5.498899 -6.105977 -50.899010 6.059414 -35.191293 -1.813253 0.000000 0.000000 0.000000 1.550695 0.362252 2.187389 -0.841518 8.382278 15.457797 5.418023 1.294763 48.687709 4.116312 34.197261 2.110581 0.000000 0.000000 0.000000 
0.865565 40.608429 -7.134403 0.000000 0.000000 0.000000 11.478565 -20.596427 4.752560 -26.590145 5.393026 18.568872 102.375008 -3.445871 -5.138806 36.603161 -3.445403 -15.600458 0.000000 0.000000 0.000000 5.297015 11.794459 -2.736809 -22.997380 -0.878930 -16.442729 96.601319 3.742707 1.034026 31.698546 4.754893 18.028882 0.000000 0.000000 0.000000 0.956307 -1.747295 0.640914 5.798951 9.472180 -2.035081 3.691207 0.313323 -0.507059 -0.576939 0.597621 0.595881 0.000000 0.000000 0.000000 2.465992 0.306420 0.033767 -0.712299 0.022582 -0.031986 0.000000 0.000000 0.000000 -0.107182 0.970310 -1.927731 -0.617914 -4.438377 -15.773545 3.976620 -4.713655 -50.273396 5.694290 -33.000506 -1.602942 0.000000 0.000000 0.000000 1.252316 0.385356 2.162253 -0.668332 7.667645 15.678143 6.049586 -0.041344 50.342056 3.721318 31.347515 2.584100 0.000000 0.000000 0.000000 
-0.195199 39.996887 -8.285294 0.000000 0.000000 0.000000 11.156285 -22.430623 5.355588 -27.313978 4.649923 19.044879 104.613383 -3.429120 -5.582019 37.951871 -3.235434 -16.150300 0.000000 0.000000 0.000000 5.909463 10.716304 -2.284643 -21.867098 -1.409049 -15.921270 96.722247 4.149897 1.028728 31.782294 5.236872 18.466941 0.000000 0.000000 0.000000 0.000378 -2.035731 -0.061464 7.046139 7.877748 -3.368260 2.995605 -0.284618 -0.189221 -0.308501 0.786488 0.185084 0.000000 0.000000 0.000000 2.698267 0.301889 0.030099 -0.584483 0.044532 -0.052473 0.000000 0.000000 0.000000 0.721857 0.597535 -2.100013 -0.323392 -4.263180 -15.843862 5.518575 -5.930529 -51.104923 6.203843 -33.423558 -1.788035 0.000000 0.000000 0.000000 1.663534 0.613117 2.082178 -0.658549 8.270351 16.473201 4.354792 0.824236 49.991544 3.419159 34.109265 2.533329 0.000000 0.000000 0.000000 
0.754050 40.913891 -8.304203 0.000000 0.000000 0.000000 12.636627 -21.494593 6.101562 -25.144033 5.017370 19.624354 105.601247 -2.675312 -5.953459 39.032871 -2.236387 -15.811504 0.000000 0.000000 0.000000 6.334874 11.649558 -2.402778 -21.081560 -1.226798 -15.800692 97.961893 4.657898 0.433176 32.259100 6.178733 18.195272 0.000000 0.000000 0.000000 2.025567 -1.069131 0.161400 7.648751 7.777425 -1.558912 3.073284 -0.127662 -0.605137 -1.117797 0.647370 0.472065 0.000000 0.000000 0.000000 2.589402 0.229342 0.172749 -0.825307 0.100903 -0.015522 0.000000 0.000000 0.000000 0.639552 0.395368 -1.988763 -0.438468 -4.273016 -16.420618 4.904941 -5.140142 -50.471727 5.637361 -33.243531 -1.990975 0.000000 0.000000 0.000000 1.320300 0.606725 2.376010 -0.661808 8.763607 16.765635 5.341013 -0.217776 49.869175 3.593593 34.899835 2.390537 0.000000 0.000000 0.000000 
0.106144 40.486160 -8.171436 0.000000 0.000000 0.000000 11.639625 -21.549409 5.223332 -26.297926 5.010153 18.882343 106.061705 -3.171130 -5.987494 38.737766 -2.725848 -16.377882 0.000000 0.000000 0.000000 6.231420 13.245589 -2.251632 -21.138435 -0.783805 -15.423337 99.605721 4.806536 -0.435800 32.822057 6.834267 17.158238 0.000000 0.000000 0.000000 0.106939 -4.026269 0.699642 7.563720 10.191720 -0.466557 2.460594 -1.001084 -0.607762 -0.489744 0.721237 0.475094 0.000000 0.000000 0.000000 2.229118 0.085797 0.113341 -0.676684 -0.098255 -0.080808 0.000000 0.000000 0.000000 0.950244 0.551284 -1.823510 0.184134 -4.043957 -15.103975 4.211437 -4.374415 -51.832793 5.768035 -33.951040 -2.350624 0.000000 0.000000 0.000000 1.407589 0.621180 2.398051 -0.486897 8.327540 16.864963 4.176784 0.463428 49.973468 3.823872 33.420638 2.277418 0.000000 0.000000 0.000000 
